<svg xmlns="http://www.w3.org/2000/svg" width="64" height="64" fill="none"><g clip-path="url(#a)"><rect width="64" height="64" fill="#fff" rx="32"/><path fill="#811AC0" d="M44 24a12 12 0 1 1-24 0 12 12 0 0 1 24 0Z"/><path fill="#811AC0" fill-rule="evenodd" d="M0 32a32 32 0 1 1 64 0 32 32 0 0 1-64 0ZM32 4a28 28 0 0 0-21.872 45.48C12.968 44.904 19.22 40 32 40s19.028 4.9 21.872 9.48A28 28 0 0 0 32 4Z" clip-rule="evenodd"/></g><defs><clipPath id="a"><rect width="64" height="64" fill="#fff" rx="32"/></clipPath></defs></svg>